# xmcd
#
# Track frame offsets: 
#        150
#        15352
#        24530
#        35582
#        48277
#        65397
#        75337
#        88255
#        100555
#        111022
#        124730
#        139637
#        155030
#        172510
#        190977
#        203487
#
# Disc length: 2885 seconds
#
# Revision: 1
# Processed by: cddbd v1.5.2PL0 Copyright (c) Steve Scherf et al.
# Submitted via: ExactAudioCopy v0.99pb5
#
DISCID=bb0b4310
DTITLE=Rolling Stones - Metamorphosis
DYEAR=1975
DGENRE=
TTITLE0=Out Of Time
TTITLE1=Don't Lie To Me
TTITLE2=Some Things Just Stick In Your Mind
TTITLE3=Each And Everyday Of The Year
TTITLE4=Heart Of Stone
TTITLE5=I'd Much Rather Be With The Boys
TTITLE6=(Walkin' Thru The) Sleepy City
TTITLE7=We're Wastin' Time
TTITLE8=Try A Little Harder
TTITLE9=I Don't Know Why
TTITLE10=If You Let Me
TTITLE11=Jiving Sister Fanny
TTITLE12=Downtown Suzie
TTITLE13=Family
TTITLE14=Memo From Turner
TTITLE15=I'm Going Down
EXTD=
EXTT0=
EXTT1=
EXTT2=
EXTT3=
EXTT4=
EXTT5=
EXTT6=
EXTT7=
EXTT8=
EXTT9=
EXTT10=
EXTT11=
EXTT12=
EXTT13=
EXTT14=
EXTT15=
PLAYORDER=
